<?xml version="1.0" encoding="UTF-8" standalone="no"?>
<svg
   xmlns:dc="http://purl.org/dc/elements/1.1/"
   xmlns:cc="http://creativecommons.org/ns#"
   xmlns:rdf="http://www.w3.org/1999/02/22-rdf-syntax-ns#"
   xmlns:svg="http://www.w3.org/2000/svg"
   xmlns="http://www.w3.org/2000/svg"
   id="svg21242"
   viewBox="0 0 113.77083 92.604173"
   version="1.1"
   width="430"
   height="350">
  <metadata
     id="metadata21406">
    <rdf:RDF>
      <cc:Work
         rdf:about="">
        <dc:format>image/svg+xml</dc:format>
        <dc:type
           rdf:resource="http://purl.org/dc/dcmitype/StillImage" />
        <dc:title></dc:title>
      </cc:Work>
    </rdf:RDF>
  </metadata>
  <defs
     id="defs21404" />
  <g
     id="g5231"
     transform="matrix(-0.84460351,0,0,1.0345618,-267.2699,-355.62107)">
    <g
       transform="translate(-6.4285711,-84.642857)"
       id="g5257" />
  </g>
  <g
     transform="translate(1.0583334,-0.52916669)"
     id="g22768">
    <g
       style="fill-rule:evenodd;stroke:#000000;stroke-linecap:round;stroke-linejoin:bevel"
       id="g21246"
       transform="matrix(1.022,0,0,1.022,-1.152,-1.488)">
      <path
         style="fill:#aa4400;stroke-width:0.3969"
         id="path21248"
         d="M 2.57,90.94 29.74,68.65 29.74,55.97 2.41,77.03 Z" />
      <path
         style="fill:#d2691e;stroke-width:0.3969"
         id="path21250"
         d="M 77.26,91.03 2.57,90.94 29.74,68.65 104.4,68.45 77.31,91.02" />
      <path
         style="fill:#aa4400;stroke-width:0.3969"
         id="path21252"
         d="M 2.411,77.03 2.55,90.89 77.26,91.03 77.08,77.04 Z" />
    </g>
    <g
       style="fill:#d45500;stroke:#000000;stroke-width:0.07938;stroke-linecap:round;stroke-linejoin:bevel"
       id="g21396"
       transform="matrix(1.022,0,0,1.022,-1.152,-1.488)">
      <rect
         id="rect21398"
         x="34.52"
         y="55.220001"
         width="9"
         height="1.209"
         ry="0.023739999"
         rx="0.83789998" />
      <rect
         id="rect21400"
         x="90.849998"
         y="55.220001"
         width="9"
         height="1.209"
         ry="0.023739999"
         rx="0.83789998" />
    </g>
    <g
       style="stroke:#000000"
       id="g21254"
       transform="matrix(1.022,0,0,1.022,-1.152,-1.488)">
      <g
         style="stroke-linecap:round"
         id="g21256"
         transform="translate(0,44.98)">
        <path
           style="fill:#552200;stroke-width:0.3969;stroke-linejoin:bevel"
           id="path21258"
           d="m 27.4,34.38 0,9.936 24.84,0 0,-9.94 -2.484,0 0,7.452 -19.88,0 0,-7.45 z" />
        <g
           style="fill:#f57900;stroke-width:0.26460001;stroke-linejoin:round"
           id="g21260">
          <rect
             id="rect21262"
             x="24.75"
             y="34.32"
             width="2.3380001"
             height="2.529"
             ry="0"
             rx="0" />
          <rect
             id="rect21264"
             x="30.190001"
             y="34.32"
             width="2.3380001"
             height="2.529"
             ry="0"
             rx="0" />
          <rect
             id="rect21266"
             x="47.099998"
             y="34.32"
             width="2.3380001"
             height="2.529"
             ry="0"
             rx="0" />
          <rect
             id="rect21268"
             x="52.540001"
             y="34.32"
             width="2.3380001"
             height="2.529"
             ry="0"
             rx="0" />
        </g>
      </g>
      <rect
         style="fill:#f57900;stroke-width:0.27520001;stroke-linecap:round;stroke-linejoin:bevel"
         id="rect21270"
         x="-75.540001"
         y="79.010002"
         width="17.389999"
         height="6.0970001"
         transform="scale(-1,1)" />
      <g
         style="fill:#ce5c00;stroke-width:0.05292"
         id="g21272"
         transform="translate(0.307,44.98)">
        <g
           id="g21274"
           transform="translate(0,0.07458)">
          <circle
             id="circle21276"
             r="0.57520002"
             cx="74.199997"
             cy="34.970001" />
          <circle
             id="circle21278"
             r="0.57520002"
             cx="74.199997"
             cy="39.029999" />
        </g>
        <g
           id="g21280"
           transform="translate(-15.33,0.07458)">
          <circle
             id="circle21282"
             r="0.57520002"
             cx="74.199997"
             cy="34.970001" />
          <circle
             id="circle21284"
             r="0.57520002"
             cx="74.199997"
             cy="39.029999" />
        </g>
      </g>
      <g
         style="stroke-width:0.18780001;stroke-linecap:round;stroke-linejoin:bevel"
         id="g21286"
         transform="translate(-0.2969,44.83)">
        <g
           style="fill:#d45500"
           id="g21288">
          <rect
             id="rect21290"
             x="-70.43"
             y="35.400002"
             width="1.017"
             height="3.6600001"
             transform="scale(-1,1)" />
          <rect
             id="rect21292"
             x="-68.800003"
             y="35.400002"
             width="1.017"
             height="3.6600001"
             transform="scale(-1,1)" />
          <rect
             id="rect21294"
             x="-67.160004"
             y="35.400002"
             width="1.017"
             height="3.6600001"
             transform="scale(-1,1)" />
        </g>
        <rect
           style="fill:#ff6600"
           id="rect21296"
           x="-73.510002"
           y="35.990002"
           width="2.0699999"
           height="2.477"
           transform="scale(-1,1)" />
      </g>
      <rect
         style="fill:#f57900;stroke-width:0.27520001;stroke-linecap:round;stroke-linejoin:bevel"
         id="rect21298"
         x="4.0819998"
         y="79.010002"
         width="17.389999"
         height="6.0970001" />
      <g
         style="fill:#ce5c00;stroke-width:0.05292"
         id="g21300"
         transform="matrix(-1,0,0,1,79.32,44.98)">
        <g
           id="g21302"
           transform="translate(0,0.07458)">
          <circle
             id="circle21304"
             r="0.57520002"
             cy="34.970001"
             cx="74.199997" />
          <circle
             id="circle21306"
             r="0.57520002"
             cy="39.029999"
             cx="74.199997" />
        </g>
        <g
           id="g21308"
           transform="translate(-15.33,0.07458)">
          <circle
             id="circle21310"
             r="0.57520002"
             cy="34.970001"
             cx="74.199997" />
          <circle
             id="circle21312"
             r="0.57520002"
             cy="39.029999"
             cx="74.199997" />
        </g>
      </g>
      <g
         style="stroke-linecap:round"
         id="g21314">
        <g
           style="stroke-width:0.18780001;stroke-linejoin:bevel"
           id="g21316"
           transform="matrix(-1,0,0,1,79.92,44.83)">
          <g
             style="fill:#d45500"
             id="g21318">
            <rect
               id="rect21320"
               x="-70.43"
               y="35.400002"
               width="1.017"
               height="3.6600001"
               transform="scale(-1,1)" />
            <rect
               id="rect21322"
               x="-68.800003"
               y="35.400002"
               width="1.017"
               height="3.6600001"
               transform="scale(-1,1)" />
            <rect
               id="rect21324"
               x="-67.160004"
               y="35.400002"
               width="1.017"
               height="3.6600001"
               transform="scale(-1,1)" />
          </g>
          <rect
             style="fill:#ff6600"
             id="rect21326"
             x="-73.510002"
             y="35.990002"
             width="2.0699999"
             height="2.477"
             transform="scale(-1,1)" />
        </g>
        <path
           style="fill:#aa4400;fill-rule:evenodd;stroke-width:0.3969;stroke-linejoin:round"
           id="path21328"
           d="m 29.74,55.97 1e-6,12.68 74.659999,-0.2 0,-12.68 z" />
        <path
           style="fill:#aa4400;fill-rule:evenodd;stroke-width:0.3969;stroke-linejoin:bevel"
           id="path21330"
           d="m 77.26,91.03 27.14,-22.58 0,-12.68 -27.33,21.06 z" />
      </g>
    </g>
    <rect
       rx="0.85633379"
       ry="0.85633379"
       height="4.5724277"
       width="1.143618"
       y="80.108482"
       x="16.467279"
       id="rect21334"
       style="opacity:0.63599997" />
    <rect
       rx="0.85633379"
       ry="0.85633379"
       height="4.5724277"
       width="1.143618"
       y="80.108482"
       x="61.465939"
       id="rect21336"
       style="opacity:0.63599997" />
    <g
       style="fill-rule:evenodd;stroke:#000000"
       id="g21338"
       transform="matrix(1.022,0,0,1.022,-1.152,-1.488)">
      <path
         style="fill:#aa4400;stroke-width:0.41670001;stroke-linecap:round;stroke-linejoin:bevel"
         id="path21340"
         d="m 33.89,10.86 0.19,41.42 74.62,-0.19 -0.4,-41.2 z" />
      <path
         style="fill:#d2691e;stroke-width:0.26460001px"
         id="path21342"
         d="m 29.74,55.97 4.34,-3.69 74.62,-0.19 -4.3,3.68 z" />
      <path
         style="fill:#d2691e;stroke-width:0.26460001px;stroke-linecap:round;stroke-linejoin:round"
         id="path21344"
         d="m 33.89,10.86 0.1893,41.42 -4.338,3.689 -0.1794,-41.43 z" />
    </g>
    <g
       id="g21346"
       transform="matrix(1.022,0,0,1.022,-1.152,-1.488)">
      <rect
         style="fill:#422109"
         id="rect21348"
         x="35.040001"
         y="15.46"
         width="71.349998"
         height="38.610001"
         ry="0.85979998"
         rx="0.87470001" />
      <path
         style="fill:#aa4400;fill-rule:evenodd;stroke:#000000;stroke-width:0.26460001px;stroke-linecap:round;stroke-linejoin:round"
         id="path21350"
         d="m 108.5,10.67 0.1893,41.42 -4.338,3.689 -0.1794,-41.43 z" />
      <path
         style="fill:#aa4400;fill-rule:evenodd;stroke:#000000;stroke-width:0.26460001px;stroke-linecap:round;stroke-linejoin:round"
         id="path21352"
         d="m 33.89,10.86 -4.328,3.679 74.4,0.02917 4.575,-3.898 z" />
    </g>
    <g
       id="g22684"
       transform="matrix(-0.25760581,-0.15174144,0.24383073,-0.41394235,0.75888853,177.68892)">
      <g
         transform="matrix(-0.70666232,0,0,0.70666231,-1.5501353,-105.58424)"
         id="g22686">
        <g
           id="g22688">
          <path
             style="fill:#b1cab1;fill-opacity:1;stroke:none"
             d="m -190.89286,425.75504 45,30.53571 0.53572,0.35715 8.92857,-3.39286 18.92857,-8.75 17.14286,-8.75 18.571426,-10 27.678571,-16.60714 7.857143,-4.82143 -43.571429,-21.96429 -36.785711,19.46429 -17.67857,8.39285 -24.28572,8.75 z"
             id="path22690"
             transform="translate(6.4285711,84.642857)" />
          <path
             style="fill:#005500;stroke:none"
             d="m -83.203841,466.29464 c -55.310089,31.49436 -76.664149,35.62903 -103.590799,44.23291 l 47.49879,31.83852 c 35.8553,-14.36254 69.040859,-32.88026 101.072639,-53.21721 l -44.98063,-22.85422 z m -0.31477,1.63947 41.70702,21.18196 c -29.70502,18.85968 -63.729829,37.8978 -96.980629,51.21706 l -44.03632,-29.51047 c 24.97073,-7.97891 48.01751,-13.68191 99.309929,-42.88855 z"
             id="path22692" />
        </g>
      </g>
      <g
         id="g22694"
         transform="matrix(-0.70666232,0,0,0.70666231,-1.5501353,-108.41089)">
        <g
           id="g22696">
          <path
             transform="translate(6.4285711,84.642857)"
             id="path22698"
             d="m -190.89286,425.75504 45,30.53571 0.53572,0.35715 8.92857,-3.39286 18.92857,-8.75 17.14286,-8.75 18.571426,-10 27.678571,-16.60714 7.857143,-4.82143 -43.571429,-21.96429 -36.785711,19.46429 -17.67857,8.39285 -24.28572,8.75 z"
             style="fill:#b1cab1;fill-opacity:1;stroke:none" />
          <path
             id="path22700"
             d="m -83.203841,466.29464 c -55.310089,31.49436 -76.664149,35.62903 -103.590799,44.23291 l 47.49879,31.83852 c 35.8553,-14.36254 69.040859,-32.88026 101.072639,-53.21721 l -44.98063,-22.85422 z m -0.31477,1.63947 41.70702,21.18196 c -29.70502,18.85968 -63.729829,37.8978 -96.980629,51.21706 l -44.03632,-29.51047 c 24.97073,-7.97891 48.01751,-13.68191 99.309929,-42.88855 z"
             style="fill:#005500;stroke:none" />
        </g>
      </g>
      <g
         transform="matrix(-0.70666232,0,0,0.70666231,-1.5501353,-111.23754)"
         id="g22702">
        <g
           id="g22704">
          <path
             style="fill:#b1cab1;fill-opacity:1;stroke:none"
             d="m -190.89286,425.75504 45,30.53571 0.53572,0.35715 8.92857,-3.39286 18.92857,-8.75 17.14286,-8.75 18.571426,-10 27.678571,-16.60714 7.857143,-4.82143 -43.571429,-21.96429 -36.785711,19.46429 -17.67857,8.39285 -24.28572,8.75 z"
             id="path22706"
             transform="translate(6.4285711,84.642857)" />
          <path
             style="fill:#005500;stroke:none"
             d="m -83.203841,466.29464 c -55.310089,31.49436 -76.664149,35.62903 -103.590799,44.23291 l 47.49879,31.83852 c 35.8553,-14.36254 69.040859,-32.88026 101.072639,-53.21721 l -44.98063,-22.85422 z m -0.31477,1.63947 41.70702,21.18196 c -29.70502,18.85968 -63.729829,37.8978 -96.980629,51.21706 l -44.03632,-29.51047 c 24.97073,-7.97891 48.01751,-13.68191 99.309929,-42.88855 z"
             id="path22708" />
        </g>
      </g>
      <g
         id="g22710"
         transform="matrix(-0.70666232,0,0,0.70666231,-5.3221362,-50.454488)">
        <path
           id="path22712"
           d="m -180.71429,422.00504 c 0,0 5.71429,3.92857 6.42858,7.14286 0.71428,3.21428 23.92857,16.78571 23.92857,16.78571 l 11.42857,0 7.85714,-1.78571 19.64286,-9.28572 15.714284,-6.78571 18.928572,-10.35715 17.857142,-10.71428 0,-11.42857 -25.714285,-12.14286 -12.857143,1.78571 -11.78571,7.14286 -28.92858,12.85714 -37.5,13.21429 z"
           style="fill:#b1cab1;fill-opacity:1;stroke:none" />
        <g
           id="g22714"
           style="fill:#165016">
          <path
             style="fill:#165016;stroke:none"
             d="M -89.65625,378.78125 C -144.56747,408.797 -165.76753,412.73755 -192.5,420.9375 l 47.15625,30.34375 C -109.74702,437.59301 -76.800778,419.94466 -45,400.5625 L -89.65625,378.78125 Z M -78.75,387.3125 -63.875,395 c -0.955399,1.91634 -1.5,4.03707 -1.5,6.28125 0,2.55026 0.692363,4.95727 1.90625,7.0625 -21.463826,13.90825 -45.38187,24.75337 -69.875,34.875 -2.7124,-2.49005 -6.6914,-4.0625 -11.125,-4.0625 -3.62367,0 -6.93009,1.06679 -9.5,2.8125 l -17.4375,-11.3125 c 1.12739,-1.77781 1.75,-3.80691 1.75,-5.96875 0,-2.267 -0.7069,-4.37955 -1.9375,-6.21875 19.45498,-5.13454 54.12354,-20.98019 72.03125,-29.9375 2.577326,1.27086 5.824082,2.03125 9.375,2.03125 4.567016,0 8.656963,-1.26067 11.4375,-3.25 z"
             id="path22716" />
          <path
             style="color:#000000;display:inline;overflow:visible;visibility:visible;fill:#165016;stroke:none;stroke-width:0.07914069;marker:none;enable-background:accumulate"
             d="m -146.36813,410.11743 c -1.58551,7.11414 1.20048,14.03422 8.40277,18.38878 7.20233,4.35457 17.17174,5.14646 26.66229,2.81172 z"
             id="path22718" />
          <path
             id="path22720"
             d="m -82.423075,417.96506 c 1.506079,-6.55188 -1.140337,-12.92505 -7.981804,-16.93546 -6.841505,-4.01042 -16.311461,-4.73972 -25.326551,-2.5895 z"
             style="color:#000000;display:inline;overflow:visible;visibility:visible;fill:#165016;stroke:none;stroke-width:0.07402207;marker:none;enable-background:accumulate" />
        </g>
      </g>
      <path
         style="fill:#005500;stroke:none"
         d="m -145.17857,393.79076 40.71428,24.99999 0.14986,10.67087 20.57879,-10.40022 0.164211,-11.87779 -39.285711,-23.39286 z"
         id="path22722"
         transform="matrix(-0.70666232,0,0,0.70666231,-6.0929648,-40.117023)" />
      <path
         id="path22724"
         d="m 127.8464,248.20324 -0.23853,1.7609 -1.53542,1.40864 2.01358,1.25366 -1.27645,1.61437 2.1288,1.2319 -25.32182,16.26715 12.76389,-10.1861 -8.72348,4.49246 11.73919,-9.55072 -8.71936,4.63275 10.98808,-8.90621 -8.96125,5.69782 z"
         style="fill:#165016;stroke:none" />
    </g>
    <g
       transform="matrix(-0.15621415,-0.25491834,0.40962391,-0.25101783,-37.449438,143.37503)"
       id="g22604">
      <g
         id="g22606"
         transform="matrix(-0.70666232,0,0,0.70666231,-1.5501353,-105.58424)">
        <g
           id="g22608">
          <path
             transform="translate(6.4285711,84.642857)"
             id="path22610"
             d="m -190.89286,425.75504 45,30.53571 0.53572,0.35715 8.92857,-3.39286 18.92857,-8.75 17.14286,-8.75 18.571426,-10 27.678571,-16.60714 7.857143,-4.82143 -43.571429,-21.96429 -36.785711,19.46429 -17.67857,8.39285 -24.28572,8.75 z"
             style="fill:#b1cab1;fill-opacity:1;stroke:none" />
          <path
             id="path22612"
             d="m -83.203841,466.29464 c -55.310089,31.49436 -76.664149,35.62903 -103.590799,44.23291 l 47.49879,31.83852 c 35.8553,-14.36254 69.040859,-32.88026 101.072639,-53.21721 l -44.98063,-22.85422 z m -0.31477,1.63947 41.70702,21.18196 c -29.70502,18.85968 -63.729829,37.8978 -96.980629,51.21706 l -44.03632,-29.51047 c 24.97073,-7.97891 48.01751,-13.68191 99.309929,-42.88855 z"
             style="fill:#005500;stroke:none" />
        </g>
      </g>
      <g
         transform="matrix(-0.70666232,0,0,0.70666231,-1.5501353,-108.41089)"
         id="g22614">
        <g
           id="g22616">
          <path
             style="fill:#b1cab1;fill-opacity:1;stroke:none"
             d="m -190.89286,425.75504 45,30.53571 0.53572,0.35715 8.92857,-3.39286 18.92857,-8.75 17.14286,-8.75 18.571426,-10 27.678571,-16.60714 7.857143,-4.82143 -43.571429,-21.96429 -36.785711,19.46429 -17.67857,8.39285 -24.28572,8.75 z"
             id="path22618"
             transform="translate(6.4285711,84.642857)" />
          <path
             style="fill:#005500;stroke:none"
             d="m -83.203841,466.29464 c -55.310089,31.49436 -76.664149,35.62903 -103.590799,44.23291 l 47.49879,31.83852 c 35.8553,-14.36254 69.040859,-32.88026 101.072639,-53.21721 l -44.98063,-22.85422 z m -0.31477,1.63947 41.70702,21.18196 c -29.70502,18.85968 -63.729829,37.8978 -96.980629,51.21706 l -44.03632,-29.51047 c 24.97073,-7.97891 48.01751,-13.68191 99.309929,-42.88855 z"
             id="path22620" />
        </g>
      </g>
      <g
         id="g22622"
         transform="matrix(-0.70666232,0,0,0.70666231,-1.5501353,-111.23754)">
        <g
           id="g22624">
          <path
             transform="translate(6.4285711,84.642857)"
             id="path22626"
             d="m -190.89286,425.75504 45,30.53571 0.53572,0.35715 8.92857,-3.39286 18.92857,-8.75 17.14286,-8.75 18.571426,-10 27.678571,-16.60714 7.857143,-4.82143 -43.571429,-21.96429 -36.785711,19.46429 -17.67857,8.39285 -24.28572,8.75 z"
             style="fill:#b1cab1;fill-opacity:1;stroke:none" />
          <path
             id="path22628"
             d="m -83.203841,466.29464 c -55.310089,31.49436 -76.664149,35.62903 -103.590799,44.23291 l 47.49879,31.83852 c 35.8553,-14.36254 69.040859,-32.88026 101.072639,-53.21721 l -44.98063,-22.85422 z m -0.31477,1.63947 41.70702,21.18196 c -29.70502,18.85968 -63.729829,37.8978 -96.980629,51.21706 l -44.03632,-29.51047 c 24.97073,-7.97891 48.01751,-13.68191 99.309929,-42.88855 z"
             style="fill:#005500;stroke:none" />
        </g>
      </g>
      <g
         transform="matrix(-0.70666232,0,0,0.70666231,-5.3221362,-50.454488)"
         id="g22630">
        <path
           style="fill:#b1cab1;fill-opacity:1;stroke:none"
           d="m -180.71429,422.00504 c 0,0 5.71429,3.92857 6.42858,7.14286 0.71428,3.21428 23.92857,16.78571 23.92857,16.78571 l 11.42857,0 7.85714,-1.78571 19.64286,-9.28572 15.714284,-6.78571 18.928572,-10.35715 17.857142,-10.71428 0,-11.42857 -25.714285,-12.14286 -12.857143,1.78571 -11.78571,7.14286 -28.92858,12.85714 -37.5,13.21429 z"
           id="path22632" />
        <g
           style="fill:#165016"
           id="g22634">
          <path
             id="path22636"
             d="M -89.65625,378.78125 C -144.56747,408.797 -165.76753,412.73755 -192.5,420.9375 l 47.15625,30.34375 C -109.74702,437.59301 -76.800778,419.94466 -45,400.5625 L -89.65625,378.78125 Z M -78.75,387.3125 -63.875,395 c -0.955399,1.91634 -1.5,4.03707 -1.5,6.28125 0,2.55026 0.692363,4.95727 1.90625,7.0625 -21.463826,13.90825 -45.38187,24.75337 -69.875,34.875 -2.7124,-2.49005 -6.6914,-4.0625 -11.125,-4.0625 -3.62367,0 -6.93009,1.06679 -9.5,2.8125 l -17.4375,-11.3125 c 1.12739,-1.77781 1.75,-3.80691 1.75,-5.96875 0,-2.267 -0.7069,-4.37955 -1.9375,-6.21875 19.45498,-5.13454 54.12354,-20.98019 72.03125,-29.9375 2.577326,1.27086 5.824082,2.03125 9.375,2.03125 4.567016,0 8.656963,-1.26067 11.4375,-3.25 z"
             style="fill:#165016;stroke:none" />
          <path
             id="path22638"
             d="m -146.36813,410.11743 c -1.58551,7.11414 1.20048,14.03422 8.40277,18.38878 7.20233,4.35457 17.17174,5.14646 26.66229,2.81172 z"
             style="color:#000000;display:inline;overflow:visible;visibility:visible;fill:#165016;stroke:none;stroke-width:0.07914069;marker:none;enable-background:accumulate" />
          <path
             style="color:#000000;display:inline;overflow:visible;visibility:visible;fill:#165016;stroke:none;stroke-width:0.07402207;marker:none;enable-background:accumulate"
             d="m -82.423075,417.96506 c 1.506079,-6.55188 -1.140337,-12.92505 -7.981804,-16.93546 -6.841505,-4.01042 -16.311461,-4.73972 -25.326551,-2.5895 z"
             id="path22640" />
        </g>
      </g>
      <path
         transform="matrix(-0.70666232,0,0,0.70666231,-6.0929648,-40.117023)"
         id="path22642"
         d="m -145.17857,393.79076 40.71428,24.99999 0.14986,10.67087 20.57879,-10.40022 0.164211,-11.87779 -39.285711,-23.39286 z"
         style="fill:#005500;stroke:none" />
      <path
         style="fill:#165016;stroke:none"
         d="m 127.8464,248.20324 -0.23853,1.7609 -1.53542,1.40864 2.01358,1.25366 -1.27645,1.61437 2.1288,1.2319 -25.32182,16.26715 12.76389,-10.1861 -8.72348,4.49246 11.73919,-9.55072 -8.71936,4.63275 10.98808,-8.90621 -8.96125,5.69782 z"
         id="path22644" />
    </g>
    <g
       id="g22259"
       transform="matrix(0.29897529,0,0,0.48041823,8.9817114,-51.406075)">
      <g
         transform="matrix(-0.70666232,0,0,0.70666231,-1.5501353,-105.58424)"
         id="g22261">
        <g
           id="g22263">
          <path
             style="fill:#b1cab1;fill-opacity:1;stroke:none"
             d="m -190.89286,425.75504 45,30.53571 0.53572,0.35715 8.92857,-3.39286 18.92857,-8.75 17.14286,-8.75 18.571426,-10 27.678571,-16.60714 7.857143,-4.82143 -43.571429,-21.96429 -36.785711,19.46429 -17.67857,8.39285 -24.28572,8.75 z"
             id="path22265"
             transform="translate(6.4285711,84.642857)" />
          <path
             style="fill:#005500;stroke:none"
             d="m -83.203841,466.29464 c -55.310089,31.49436 -76.664149,35.62903 -103.590799,44.23291 l 47.49879,31.83852 c 35.8553,-14.36254 69.040859,-32.88026 101.072639,-53.21721 l -44.98063,-22.85422 z m -0.31477,1.63947 41.70702,21.18196 c -29.70502,18.85968 -63.729829,37.8978 -96.980629,51.21706 l -44.03632,-29.51047 c 24.97073,-7.97891 48.01751,-13.68191 99.309929,-42.88855 z"
             id="path22267" />
        </g>
      </g>
      <g
         id="g22269"
         transform="matrix(-0.70666232,0,0,0.70666231,-1.5501353,-108.41089)">
        <g
           id="g22271">
          <path
             transform="translate(6.4285711,84.642857)"
             id="path22273"
             d="m -190.89286,425.75504 45,30.53571 0.53572,0.35715 8.92857,-3.39286 18.92857,-8.75 17.14286,-8.75 18.571426,-10 27.678571,-16.60714 7.857143,-4.82143 -43.571429,-21.96429 -36.785711,19.46429 -17.67857,8.39285 -24.28572,8.75 z"
             style="fill:#b1cab1;fill-opacity:1;stroke:none" />
          <path
             id="path22275"
             d="m -83.203841,466.29464 c -55.310089,31.49436 -76.664149,35.62903 -103.590799,44.23291 l 47.49879,31.83852 c 35.8553,-14.36254 69.040859,-32.88026 101.072639,-53.21721 l -44.98063,-22.85422 z m -0.31477,1.63947 41.70702,21.18196 c -29.70502,18.85968 -63.729829,37.8978 -96.980629,51.21706 l -44.03632,-29.51047 c 24.97073,-7.97891 48.01751,-13.68191 99.309929,-42.88855 z"
             style="fill:#005500;stroke:none" />
        </g>
      </g>
      <g
         transform="matrix(-0.70666232,0,0,0.70666231,-1.5501353,-111.23754)"
         id="g22277">
        <g
           id="g22279">
          <path
             style="fill:#b1cab1;fill-opacity:1;stroke:none"
             d="m -190.89286,425.75504 45,30.53571 0.53572,0.35715 8.92857,-3.39286 18.92857,-8.75 17.14286,-8.75 18.571426,-10 27.678571,-16.60714 7.857143,-4.82143 -43.571429,-21.96429 -36.785711,19.46429 -17.67857,8.39285 -24.28572,8.75 z"
             id="path22281"
             transform="translate(6.4285711,84.642857)" />
          <path
             style="fill:#005500;stroke:none"
             d="m -83.203841,466.29464 c -55.310089,31.49436 -76.664149,35.62903 -103.590799,44.23291 l 47.49879,31.83852 c 35.8553,-14.36254 69.040859,-32.88026 101.072639,-53.21721 l -44.98063,-22.85422 z m -0.31477,1.63947 41.70702,21.18196 c -29.70502,18.85968 -63.729829,37.8978 -96.980629,51.21706 l -44.03632,-29.51047 c 24.97073,-7.97891 48.01751,-13.68191 99.309929,-42.88855 z"
             id="path22283" />
        </g>
      </g>
      <g
         id="g22285"
         transform="matrix(-0.70666232,0,0,0.70666231,-5.3221362,-50.454488)">
        <path
           id="path22287"
           d="m -180.71429,422.00504 c 0,0 5.71429,3.92857 6.42858,7.14286 0.71428,3.21428 23.92857,16.78571 23.92857,16.78571 l 11.42857,0 7.85714,-1.78571 19.64286,-9.28572 15.714284,-6.78571 18.928572,-10.35715 17.857142,-10.71428 0,-11.42857 -25.714285,-12.14286 -12.857143,1.78571 -11.78571,7.14286 -28.92858,12.85714 -37.5,13.21429 z"
           style="fill:#b1cab1;fill-opacity:1;stroke:none" />
        <g
           id="g22289"
           style="fill:#165016">
          <path
             style="fill:#165016;stroke:none"
             d="M -89.65625,378.78125 C -144.56747,408.797 -165.76753,412.73755 -192.5,420.9375 l 47.15625,30.34375 C -109.74702,437.59301 -76.800778,419.94466 -45,400.5625 L -89.65625,378.78125 Z M -78.75,387.3125 -63.875,395 c -0.955399,1.91634 -1.5,4.03707 -1.5,6.28125 0,2.55026 0.692363,4.95727 1.90625,7.0625 -21.463826,13.90825 -45.38187,24.75337 -69.875,34.875 -2.7124,-2.49005 -6.6914,-4.0625 -11.125,-4.0625 -3.62367,0 -6.93009,1.06679 -9.5,2.8125 l -17.4375,-11.3125 c 1.12739,-1.77781 1.75,-3.80691 1.75,-5.96875 0,-2.267 -0.7069,-4.37955 -1.9375,-6.21875 19.45498,-5.13454 54.12354,-20.98019 72.03125,-29.9375 2.577326,1.27086 5.824082,2.03125 9.375,2.03125 4.567016,0 8.656963,-1.26067 11.4375,-3.25 z"
             id="path22291" />
          <path
             style="color:#000000;display:inline;overflow:visible;visibility:visible;fill:#165016;stroke:none;stroke-width:0.07914069;marker:none;enable-background:accumulate"
             d="m -146.36813,410.11743 c -1.58551,7.11414 1.20048,14.03422 8.40277,18.38878 7.20233,4.35457 17.17174,5.14646 26.66229,2.81172 z"
             id="path22293" />
          <path
             id="path22295"
             d="m -82.423075,417.96506 c 1.506079,-6.55188 -1.140337,-12.92505 -7.981804,-16.93546 -6.841505,-4.01042 -16.311461,-4.73972 -25.326551,-2.5895 z"
             style="color:#000000;display:inline;overflow:visible;visibility:visible;fill:#165016;stroke:none;stroke-width:0.07402207;marker:none;enable-background:accumulate" />
        </g>
      </g>
      <path
         style="fill:#005500;stroke:none"
         d="m -145.17857,393.79076 40.71428,24.99999 0.14986,10.67087 20.57879,-10.40022 0.164211,-11.87779 -39.285711,-23.39286 z"
         id="path22297"
         transform="matrix(-0.70666232,0,0,0.70666231,-6.0929648,-40.117023)" />
      <path
         id="path22299"
         d="m 127.8464,248.20324 -0.23853,1.7609 -1.53542,1.40864 2.01358,1.25366 -1.27645,1.61437 2.1288,1.2319 -25.32182,16.26715 12.76389,-10.1861 -8.72348,4.49246 11.73919,-9.55072 -8.71936,4.63275 10.98808,-8.90621 -8.96125,5.69782 z"
         style="fill:#165016;stroke:none" />
    </g>
    <g
       id="g21354"
       transform="matrix(1.022,0,0,1.022,2.633488,44.48156)">
      <g
         style="stroke:#000000"
         id="g21356">
        <rect
           style="fill:#f57900;stroke-width:0.20730001;stroke-linecap:round;stroke-linejoin:round"
           id="rect21358"
           x="-6.7449999"
           y="-54.59"
           width="10.97"
           height="3.8900001"
           transform="matrix(-1,0,-0.7875,0.6163,0,0)" />
        <g
           style="fill:#ce5c00;stroke-width:0.06965"
           id="g21360"
           transform="translate(-0.1505,0)">
          <ellipse
             id="ellipse21362"
             cx="-30.950001"
             cy="-28.34"
             transform="matrix(-0.9844,0.1759,-0.304,0.9527,0,0)"
             ry="0.62449998"
             rx="0.91759998" />
          <ellipse
             id="ellipse21364"
             cx="-39.189999"
             cy="-26.82"
             transform="matrix(-0.9844,0.1759,-0.304,0.9527,0,0)"
             ry="0.62449998"
             rx="0.91759998" />
        </g>
      </g>
      <g
         style="stroke:#000000"
         id="g21366"
         transform="translate(-0.8279,0)">
        <rect
           style="fill:#d45500;stroke-width:0.1323"
           id="rect21368"
           x="-44.93"
           y="-31.690001"
           width="5.237"
           height="0.62840003"
           transform="scale(-1,1)" />
        <path
           style="fill:#f57900;stroke-width:0.18780001;stroke-linecap:round;stroke-linejoin:round"
           id="path21370"
           d="m 40.67,-41.02 c -0.4642,0 -0.8382,0.374 -0.8382,0.8382 l 0,8.259 c 0,0.1062 0.02166,0.2069 0.05736,0.3002 l 4.853,0 c 0.0357,-0.09331 0.05736,-0.1941 0.05736,-0.3002 l 0,-8.259 c 0,-0.4642 -0.3735,-0.8382 -0.8377,-0.8382 z" />
      </g>
      <rect
         style="opacity:0.63599997;fill:#696969"
         id="rect21372"
         x="40.849998"
         y="-39.970001"
         width="1.119"
         height="4.474"
         ry="0.83789998"
         rx="0.83789998" />
    </g>
    <g
       id="g21374"
       transform="matrix(1.022,0,0,1.022,47.0353,44.48156)">
      <g
         style="stroke:#000000"
         id="g21376">
        <rect
           style="fill:#f57900;stroke-width:0.20730001;stroke-linecap:round;stroke-linejoin:round"
           id="rect21378"
           x="-6.7449999"
           y="-54.59"
           width="10.97"
           height="3.8900001"
           transform="matrix(-1,0,-0.7875,0.6163,0,0)" />
        <g
           style="fill:#ce5c00;stroke-width:0.06965"
           id="g21380"
           transform="translate(-0.1505,0)">
          <ellipse
             id="ellipse21382"
             cx="-30.950001"
             cy="-28.34"
             transform="matrix(-0.9844,0.1759,-0.304,0.9527,0,0)"
             ry="0.62449998"
             rx="0.91759998" />
          <ellipse
             id="ellipse21384"
             cx="-39.189999"
             cy="-26.82"
             transform="matrix(-0.9844,0.1759,-0.304,0.9527,0,0)"
             ry="0.62449998"
             rx="0.91759998" />
        </g>
      </g>
      <g
         style="stroke:#000000"
         id="g21386"
         transform="translate(-0.8279,0)">
        <rect
           style="fill:#d45500;stroke-width:0.1323"
           id="rect21388"
           x="-44.93"
           y="-31.690001"
           width="5.237"
           height="0.62840003"
           transform="scale(-1,1)" />
        <path
           style="fill:#f57900;stroke-width:0.18780001;stroke-linecap:round;stroke-linejoin:round"
           id="path21390"
           d="m 40.67,-41.02 c -0.4642,0 -0.8382,0.374 -0.8382,0.8382 l 0,8.259 c 0,0.1062 0.02166,0.2069 0.05736,0.3002 l 4.853,0 c 0.0357,-0.09331 0.05736,-0.1941 0.05736,-0.3002 l 0,-8.259 c 0,-0.4642 -0.3735,-0.8382 -0.8377,-0.8382 z" />
      </g>
      <rect
         style="opacity:0.63599997;fill:#696969"
         id="rect21392"
         x="40.849998"
         y="-39.970001"
         width="1.119"
         height="4.474"
         ry="0.83789998"
         rx="0.83789998" />
    </g>
    <path
       style="fill:none;stroke:#000000;stroke-width:0.27042121px"
       id="path21394"
       d="m 29.05832,13.37188 76.0368,0.02981" />
    <path
       style="fill:#aa4400;fill-opacity:1;fill-rule:evenodd;stroke:none;stroke-width:0.26458335px;stroke-linecap:butt;stroke-linejoin:miter;stroke-opacity:1"
       d="m 1.1429445,77.283497 76.5775505,-0.151439 -32.002558,1.665848 -3.714584,5.906186 -6.429084,-2.877374 -4.143188,-3.180255 c 0,0 -26.0020795,0.151443 -26.7164226,0.151443 -0.7143427,0 -3.5717139,-1.514409 -3.5717139,-1.514409 z"
       id="path22516" />
    <path
       style="fill:none;fill-rule:evenodd;stroke:#000000;stroke-width:0.26458335px;stroke-linecap:butt;stroke-linejoin:miter;stroke-opacity:1"
       d="m 1.285813,77.031497 76.577549,0.142867"
       id="path22518" />
    <g
       transform="matrix(0,-0.29897527,0.48041826,0,-41.691732,82.961626)"
       id="g22520">
      <g
         id="g22522"
         transform="matrix(-0.70666232,0,0,0.70666231,-1.5501353,-105.58424)">
        <g
           id="g22524">
          <path
             transform="translate(6.4285711,84.642857)"
             id="path22526"
             d="m -190.89286,425.75504 45,30.53571 0.53572,0.35715 8.92857,-3.39286 18.92857,-8.75 17.14286,-8.75 18.571426,-10 27.678571,-16.60714 7.857143,-4.82143 -43.571429,-21.96429 -36.785711,19.46429 -17.67857,8.39285 -24.28572,8.75 z"
             style="fill:#b1cab1;fill-opacity:1;stroke:none" />
          <path
             id="path22528"
             d="m -83.203841,466.29464 c -55.310089,31.49436 -76.664149,35.62903 -103.590799,44.23291 l 47.49879,31.83852 c 35.8553,-14.36254 69.040859,-32.88026 101.072639,-53.21721 l -44.98063,-22.85422 z m -0.31477,1.63947 41.70702,21.18196 c -29.70502,18.85968 -63.729829,37.8978 -96.980629,51.21706 l -44.03632,-29.51047 c 24.97073,-7.97891 48.01751,-13.68191 99.309929,-42.88855 z"
             style="fill:#005500;stroke:none" />
        </g>
      </g>
      <g
         transform="matrix(-0.70666232,0,0,0.70666231,-1.5501353,-108.41089)"
         id="g22530">
        <g
           id="g22532">
          <path
             style="fill:#b1cab1;fill-opacity:1;stroke:none"
             d="m -190.89286,425.75504 45,30.53571 0.53572,0.35715 8.92857,-3.39286 18.92857,-8.75 17.14286,-8.75 18.571426,-10 27.678571,-16.60714 7.857143,-4.82143 -43.571429,-21.96429 -36.785711,19.46429 -17.67857,8.39285 -24.28572,8.75 z"
             id="path22534"
             transform="translate(6.4285711,84.642857)" />
          <path
             style="fill:#005500;stroke:none"
             d="m -83.203841,466.29464 c -55.310089,31.49436 -76.664149,35.62903 -103.590799,44.23291 l 47.49879,31.83852 c 35.8553,-14.36254 69.040859,-32.88026 101.072639,-53.21721 l -44.98063,-22.85422 z m -0.31477,1.63947 41.70702,21.18196 c -29.70502,18.85968 -63.729829,37.8978 -96.980629,51.21706 l -44.03632,-29.51047 c 24.97073,-7.97891 48.01751,-13.68191 99.309929,-42.88855 z"
             id="path22536" />
        </g>
      </g>
      <g
         id="g22538"
         transform="matrix(-0.70666232,0,0,0.70666231,-1.5501353,-111.23754)">
        <g
           id="g22540">
          <path
             transform="translate(6.4285711,84.642857)"
             id="path22542"
             d="m -190.89286,425.75504 45,30.53571 0.53572,0.35715 8.92857,-3.39286 18.92857,-8.75 17.14286,-8.75 18.571426,-10 27.678571,-16.60714 7.857143,-4.82143 -43.571429,-21.96429 -36.785711,19.46429 -17.67857,8.39285 -24.28572,8.75 z"
             style="fill:#b1cab1;fill-opacity:1;stroke:none" />
          <path
             id="path22544"
             d="m -83.203841,466.29464 c -55.310089,31.49436 -76.664149,35.62903 -103.590799,44.23291 l 47.49879,31.83852 c 35.8553,-14.36254 69.040859,-32.88026 101.072639,-53.21721 l -44.98063,-22.85422 z m -0.31477,1.63947 41.70702,21.18196 c -29.70502,18.85968 -63.729829,37.8978 -96.980629,51.21706 l -44.03632,-29.51047 c 24.97073,-7.97891 48.01751,-13.68191 99.309929,-42.88855 z"
             style="fill:#005500;stroke:none" />
        </g>
      </g>
      <g
         transform="matrix(-0.70666232,0,0,0.70666231,-5.3221362,-50.454488)"
         id="g22546">
        <path
           style="fill:#b1cab1;fill-opacity:1;stroke:none"
           d="m -180.71429,422.00504 c 0,0 5.71429,3.92857 6.42858,7.14286 0.71428,3.21428 23.92857,16.78571 23.92857,16.78571 l 11.42857,0 7.85714,-1.78571 19.64286,-9.28572 15.714284,-6.78571 18.928572,-10.35715 17.857142,-10.71428 0,-11.42857 -25.714285,-12.14286 -12.857143,1.78571 -11.78571,7.14286 -28.92858,12.85714 -37.5,13.21429 z"
           id="path22548" />
        <g
           style="fill:#165016"
           id="g22550">
          <path
             id="path22552"
             d="M -89.65625,378.78125 C -144.56747,408.797 -165.76753,412.73755 -192.5,420.9375 l 47.15625,30.34375 C -109.74702,437.59301 -76.800778,419.94466 -45,400.5625 L -89.65625,378.78125 Z M -78.75,387.3125 -63.875,395 c -0.955399,1.91634 -1.5,4.03707 -1.5,6.28125 0,2.55026 0.692363,4.95727 1.90625,7.0625 -21.463826,13.90825 -45.38187,24.75337 -69.875,34.875 -2.7124,-2.49005 -6.6914,-4.0625 -11.125,-4.0625 -3.62367,0 -6.93009,1.06679 -9.5,2.8125 l -17.4375,-11.3125 c 1.12739,-1.77781 1.75,-3.80691 1.75,-5.96875 0,-2.267 -0.7069,-4.37955 -1.9375,-6.21875 19.45498,-5.13454 54.12354,-20.98019 72.03125,-29.9375 2.577326,1.27086 5.824082,2.03125 9.375,2.03125 4.567016,0 8.656963,-1.26067 11.4375,-3.25 z"
             style="fill:#165016;stroke:none" />
          <path
             id="path22554"
             d="m -146.36813,410.11743 c -1.58551,7.11414 1.20048,14.03422 8.40277,18.38878 7.20233,4.35457 17.17174,5.14646 26.66229,2.81172 z"
             style="color:#000000;display:inline;overflow:visible;visibility:visible;fill:#165016;stroke:none;stroke-width:0.07914069;marker:none;enable-background:accumulate" />
          <path
             style="color:#000000;display:inline;overflow:visible;visibility:visible;fill:#165016;stroke:none;stroke-width:0.07402207;marker:none;enable-background:accumulate"
             d="m -82.423075,417.96506 c 1.506079,-6.55188 -1.140337,-12.92505 -7.981804,-16.93546 -6.841505,-4.01042 -16.311461,-4.73972 -25.326551,-2.5895 z"
             id="path22556" />
        </g>
      </g>
      <path
         transform="matrix(-0.70666232,0,0,0.70666231,-6.0929648,-40.117023)"
         id="path22558"
         d="m -145.17857,393.79076 40.71428,24.99999 0.14986,10.67087 20.57879,-10.40022 0.164211,-11.87779 -39.285711,-23.39286 z"
         style="fill:#005500;stroke:none" />
      <path
         style="fill:#165016;stroke:none"
         d="m 127.8464,248.20324 -0.23853,1.7609 -1.53542,1.40864 2.01358,1.25366 -1.27645,1.61437 2.1288,1.2319 -25.32182,16.26715 12.76389,-10.1861 -8.72348,4.49246 11.73919,-9.55072 -8.71936,4.63275 10.98808,-8.90621 -8.96125,5.69782 z"
         id="path22560" />
    </g>
    <g
       id="g22562"
       transform="matrix(0,-0.29897527,0.48041826,0,-52.83548,84.53318)">
      <g
         transform="matrix(-0.70666232,0,0,0.70666231,-1.5501353,-105.58424)"
         id="g22564">
        <g
           id="g22566">
          <path
             style="fill:#b1cab1;fill-opacity:1;stroke:none"
             d="m -190.89286,425.75504 45,30.53571 0.53572,0.35715 8.92857,-3.39286 18.92857,-8.75 17.14286,-8.75 18.571426,-10 27.678571,-16.60714 7.857143,-4.82143 -43.571429,-21.96429 -36.785711,19.46429 -17.67857,8.39285 -24.28572,8.75 z"
             id="path22568"
             transform="translate(6.4285711,84.642857)" />
          <path
             style="fill:#005500;stroke:none"
             d="m -83.203841,466.29464 c -55.310089,31.49436 -76.664149,35.62903 -103.590799,44.23291 l 47.49879,31.83852 c 35.8553,-14.36254 69.040859,-32.88026 101.072639,-53.21721 l -44.98063,-22.85422 z m -0.31477,1.63947 41.70702,21.18196 c -29.70502,18.85968 -63.729829,37.8978 -96.980629,51.21706 l -44.03632,-29.51047 c 24.97073,-7.97891 48.01751,-13.68191 99.309929,-42.88855 z"
             id="path22570" />
        </g>
      </g>
      <g
         id="g22572"
         transform="matrix(-0.70666232,0,0,0.70666231,-1.5501353,-108.41089)">
        <g
           id="g22574">
          <path
             transform="translate(6.4285711,84.642857)"
             id="path22576"
             d="m -190.89286,425.75504 45,30.53571 0.53572,0.35715 8.92857,-3.39286 18.92857,-8.75 17.14286,-8.75 18.571426,-10 27.678571,-16.60714 7.857143,-4.82143 -43.571429,-21.96429 -36.785711,19.46429 -17.67857,8.39285 -24.28572,8.75 z"
             style="fill:#b1cab1;fill-opacity:1;stroke:none" />
          <path
             id="path22578"
             d="m -83.203841,466.29464 c -55.310089,31.49436 -76.664149,35.62903 -103.590799,44.23291 l 47.49879,31.83852 c 35.8553,-14.36254 69.040859,-32.88026 101.072639,-53.21721 l -44.98063,-22.85422 z m -0.31477,1.63947 41.70702,21.18196 c -29.70502,18.85968 -63.729829,37.8978 -96.980629,51.21706 l -44.03632,-29.51047 c 24.97073,-7.97891 48.01751,-13.68191 99.309929,-42.88855 z"
             style="fill:#005500;stroke:none" />
        </g>
      </g>
      <g
         transform="matrix(-0.70666232,0,0,0.70666231,-1.5501353,-111.23754)"
         id="g22580">
        <g
           id="g22582">
          <path
             style="fill:#b1cab1;fill-opacity:1;stroke:none"
             d="m -190.89286,425.75504 45,30.53571 0.53572,0.35715 8.92857,-3.39286 18.92857,-8.75 17.14286,-8.75 18.571426,-10 27.678571,-16.60714 7.857143,-4.82143 -43.571429,-21.96429 -36.785711,19.46429 -17.67857,8.39285 -24.28572,8.75 z"
             id="path22584"
             transform="translate(6.4285711,84.642857)" />
          <path
             style="fill:#005500;stroke:none"
             d="m -83.203841,466.29464 c -55.310089,31.49436 -76.664149,35.62903 -103.590799,44.23291 l 47.49879,31.83852 c 35.8553,-14.36254 69.040859,-32.88026 101.072639,-53.21721 l -44.98063,-22.85422 z m -0.31477,1.63947 41.70702,21.18196 c -29.70502,18.85968 -63.729829,37.8978 -96.980629,51.21706 l -44.03632,-29.51047 c 24.97073,-7.97891 48.01751,-13.68191 99.309929,-42.88855 z"
             id="path22586" />
        </g>
      </g>
      <g
         id="g22588"
         transform="matrix(-0.70666232,0,0,0.70666231,-5.3221362,-50.454488)">
        <path
           id="path22590"
           d="m -180.71429,422.00504 c 0,0 5.71429,3.92857 6.42858,7.14286 0.71428,3.21428 23.92857,16.78571 23.92857,16.78571 l 11.42857,0 7.85714,-1.78571 19.64286,-9.28572 15.714284,-6.78571 18.928572,-10.35715 17.857142,-10.71428 0,-11.42857 -25.714285,-12.14286 -12.857143,1.78571 -11.78571,7.14286 -28.92858,12.85714 -37.5,13.21429 z"
           style="fill:#b1cab1;fill-opacity:1;stroke:none" />
        <g
           id="g22592"
           style="fill:#165016">
          <path
             style="fill:#165016;stroke:none"
             d="M -89.65625,378.78125 C -144.56747,408.797 -165.76753,412.73755 -192.5,420.9375 l 47.15625,30.34375 C -109.74702,437.59301 -76.800778,419.94466 -45,400.5625 L -89.65625,378.78125 Z M -78.75,387.3125 -63.875,395 c -0.955399,1.91634 -1.5,4.03707 -1.5,6.28125 0,2.55026 0.692363,4.95727 1.90625,7.0625 -21.463826,13.90825 -45.38187,24.75337 -69.875,34.875 -2.7124,-2.49005 -6.6914,-4.0625 -11.125,-4.0625 -3.62367,0 -6.93009,1.06679 -9.5,2.8125 l -17.4375,-11.3125 c 1.12739,-1.77781 1.75,-3.80691 1.75,-5.96875 0,-2.267 -0.7069,-4.37955 -1.9375,-6.21875 19.45498,-5.13454 54.12354,-20.98019 72.03125,-29.9375 2.577326,1.27086 5.824082,2.03125 9.375,2.03125 4.567016,0 8.656963,-1.26067 11.4375,-3.25 z"
             id="path22594" />
          <path
             style="color:#000000;display:inline;overflow:visible;visibility:visible;fill:#165016;stroke:none;stroke-width:0.07914069;marker:none;enable-background:accumulate"
             d="m -146.36813,410.11743 c -1.58551,7.11414 1.20048,14.03422 8.40277,18.38878 7.20233,4.35457 17.17174,5.14646 26.66229,2.81172 z"
             id="path22596" />
          <path
             id="path22598"
             d="m -82.423075,417.96506 c 1.506079,-6.55188 -1.140337,-12.92505 -7.981804,-16.93546 -6.841505,-4.01042 -16.311461,-4.73972 -25.326551,-2.5895 z"
             style="color:#000000;display:inline;overflow:visible;visibility:visible;fill:#165016;stroke:none;stroke-width:0.07402207;marker:none;enable-background:accumulate" />
        </g>
      </g>
      <path
         style="fill:#005500;stroke:none"
         d="m -145.17857,393.79076 40.71428,24.99999 0.14986,10.67087 20.57879,-10.40022 0.164211,-11.87779 -39.285711,-23.39286 z"
         id="path22600"
         transform="matrix(-0.70666232,0,0,0.70666231,-6.0929648,-40.117023)" />
      <path
         id="path22602"
         d="m 127.8464,248.20324 -0.23853,1.7609 -1.53542,1.40864 2.01358,1.25366 -1.27645,1.61437 2.1288,1.2319 -25.32182,16.26715 12.76389,-10.1861 -8.72348,4.49246 11.73919,-9.55072 -8.71936,4.63275 10.98808,-8.90621 -8.96125,5.69782 z"
         style="fill:#165016;stroke:none" />
    </g>
    <g
       id="g22726"
       transform="matrix(0.1196945,-0.2739698,0.44023738,0.19233498,-38.642085,37.46139)">
      <g
         transform="matrix(-0.70666232,0,0,0.70666231,-1.5501353,-105.58424)"
         id="g22728">
        <g
           id="g22730">
          <path
             style="fill:#b1cab1;fill-opacity:1;stroke:none"
             d="m -190.89286,425.75504 45,30.53571 0.53572,0.35715 8.92857,-3.39286 18.92857,-8.75 17.14286,-8.75 18.571426,-10 27.678571,-16.60714 7.857143,-4.82143 -43.571429,-21.96429 -36.785711,19.46429 -17.67857,8.39285 -24.28572,8.75 z"
             id="path22732"
             transform="translate(6.4285711,84.642857)" />
          <path
             style="fill:#005500;stroke:none"
             d="m -83.203841,466.29464 c -55.310089,31.49436 -76.664149,35.62903 -103.590799,44.23291 l 47.49879,31.83852 c 35.8553,-14.36254 69.040859,-32.88026 101.072639,-53.21721 l -44.98063,-22.85422 z m -0.31477,1.63947 41.70702,21.18196 c -29.70502,18.85968 -63.729829,37.8978 -96.980629,51.21706 l -44.03632,-29.51047 c 24.97073,-7.97891 48.01751,-13.68191 99.309929,-42.88855 z"
             id="path22734" />
        </g>
      </g>
      <g
         id="g22736"
         transform="matrix(-0.70666232,0,0,0.70666231,-1.5501353,-108.41089)">
        <g
           id="g22738">
          <path
             transform="translate(6.4285711,84.642857)"
             id="path22740"
             d="m -190.89286,425.75504 45,30.53571 0.53572,0.35715 8.92857,-3.39286 18.92857,-8.75 17.14286,-8.75 18.571426,-10 27.678571,-16.60714 7.857143,-4.82143 -43.571429,-21.96429 -36.785711,19.46429 -17.67857,8.39285 -24.28572,8.75 z"
             style="fill:#b1cab1;fill-opacity:1;stroke:none" />
          <path
             id="path22742"
             d="m -83.203841,466.29464 c -55.310089,31.49436 -76.664149,35.62903 -103.590799,44.23291 l 47.49879,31.83852 c 35.8553,-14.36254 69.040859,-32.88026 101.072639,-53.21721 l -44.98063,-22.85422 z m -0.31477,1.63947 41.70702,21.18196 c -29.70502,18.85968 -63.729829,37.8978 -96.980629,51.21706 l -44.03632,-29.51047 c 24.97073,-7.97891 48.01751,-13.68191 99.309929,-42.88855 z"
             style="fill:#005500;stroke:none" />
        </g>
      </g>
      <g
         transform="matrix(-0.70666232,0,0,0.70666231,-1.5501353,-111.23754)"
         id="g22744">
        <g
           id="g22746">
          <path
             style="fill:#b1cab1;fill-opacity:1;stroke:none"
             d="m -190.89286,425.75504 45,30.53571 0.53572,0.35715 8.92857,-3.39286 18.92857,-8.75 17.14286,-8.75 18.571426,-10 27.678571,-16.60714 7.857143,-4.82143 -43.571429,-21.96429 -36.785711,19.46429 -17.67857,8.39285 -24.28572,8.75 z"
             id="path22748"
             transform="translate(6.4285711,84.642857)" />
          <path
             style="fill:#005500;stroke:none"
             d="m -83.203841,466.29464 c -55.310089,31.49436 -76.664149,35.62903 -103.590799,44.23291 l 47.49879,31.83852 c 35.8553,-14.36254 69.040859,-32.88026 101.072639,-53.21721 l -44.98063,-22.85422 z m -0.31477,1.63947 41.70702,21.18196 c -29.70502,18.85968 -63.729829,37.8978 -96.980629,51.21706 l -44.03632,-29.51047 c 24.97073,-7.97891 48.01751,-13.68191 99.309929,-42.88855 z"
             id="path22750" />
        </g>
      </g>
      <g
         id="g22752"
         transform="matrix(-0.70666232,0,0,0.70666231,-5.3221362,-50.454488)">
        <path
           id="path22754"
           d="m -180.71429,422.00504 c 0,0 5.71429,3.92857 6.42858,7.14286 0.71428,3.21428 23.92857,16.78571 23.92857,16.78571 l 11.42857,0 7.85714,-1.78571 19.64286,-9.28572 15.714284,-6.78571 18.928572,-10.35715 17.857142,-10.71428 0,-11.42857 -25.714285,-12.14286 -12.857143,1.78571 -11.78571,7.14286 -28.92858,12.85714 -37.5,13.21429 z"
           style="fill:#b1cab1;fill-opacity:1;stroke:none" />
        <g
           id="g22756"
           style="fill:#165016">
          <path
             style="fill:#165016;stroke:none"
             d="M -89.65625,378.78125 C -144.56747,408.797 -165.76753,412.73755 -192.5,420.9375 l 47.15625,30.34375 C -109.74702,437.59301 -76.800778,419.94466 -45,400.5625 L -89.65625,378.78125 Z M -78.75,387.3125 -63.875,395 c -0.955399,1.91634 -1.5,4.03707 -1.5,6.28125 0,2.55026 0.692363,4.95727 1.90625,7.0625 -21.463826,13.90825 -45.38187,24.75337 -69.875,34.875 -2.7124,-2.49005 -6.6914,-4.0625 -11.125,-4.0625 -3.62367,0 -6.93009,1.06679 -9.5,2.8125 l -17.4375,-11.3125 c 1.12739,-1.77781 1.75,-3.80691 1.75,-5.96875 0,-2.267 -0.7069,-4.37955 -1.9375,-6.21875 19.45498,-5.13454 54.12354,-20.98019 72.03125,-29.9375 2.577326,1.27086 5.824082,2.03125 9.375,2.03125 4.567016,0 8.656963,-1.26067 11.4375,-3.25 z"
             id="path22758" />
          <path
             style="color:#000000;display:inline;overflow:visible;visibility:visible;fill:#165016;stroke:none;stroke-width:0.07914069;marker:none;enable-background:accumulate"
             d="m -146.36813,410.11743 c -1.58551,7.11414 1.20048,14.03422 8.40277,18.38878 7.20233,4.35457 17.17174,5.14646 26.66229,2.81172 z"
             id="path22760" />
          <path
             id="path22762"
             d="m -82.423075,417.96506 c 1.506079,-6.55188 -1.140337,-12.92505 -7.981804,-16.93546 -6.841505,-4.01042 -16.311461,-4.73972 -25.326551,-2.5895 z"
             style="color:#000000;display:inline;overflow:visible;visibility:visible;fill:#165016;stroke:none;stroke-width:0.07402207;marker:none;enable-background:accumulate" />
        </g>
      </g>
      <path
         style="fill:#005500;stroke:none"
         d="m -145.17857,393.79076 40.71428,24.99999 0.14986,10.67087 20.57879,-10.40022 0.164211,-11.87779 -39.285711,-23.39286 z"
         id="path22764"
         transform="matrix(-0.70666232,0,0,0.70666231,-6.0929648,-40.117023)" />
      <path
         id="path22766"
         d="m 127.8464,248.20324 -0.23853,1.7609 -1.53542,1.40864 2.01358,1.25366 -1.27645,1.61437 2.1288,1.2319 -25.32182,16.26715 12.76389,-10.1861 -8.72348,4.49246 11.73919,-9.55072 -8.71936,4.63275 10.98808,-8.90621 -8.96125,5.69782 z"
         style="fill:#165016;stroke:none" />
    </g>
  </g>
</svg>
