<svg width="799.9999999999999" height="600" xmlns="http://www.w3.org/2000/svg" stroke="null">
 <g stroke="null">
  <title stroke="null">Layer 1</title>
  <ellipse stroke="#000000" ry="255" rx="256.99999" id="svg_3" cy="292" cx="408" fill="#000000"/>
  <ellipse stroke="#000000" ry="244.49998" rx="246.49998" id="svg_2" cy="291.49999" cx="408.49998" fill="#ffffff"/>
  <path transform="rotate(90 406.47 292.035)" stroke="#000000" fill="#000000" d="m369.47,292.03499l36.99999,-215.00001l36.99999,215.00001l-36.99999,215.00001l-36.99999,-215.00001z" id="svg_4"/>
  <path stroke="#000000" fill="#000000" d="m369.47,293.03499l36.99999,-215.00001l36.99998,215.00001l-36.99998,215.00001l-36.99999,-215.00001z" id="svg_1"/>
  <path transform="rotate(125 481.55 355.813)" id="svg_6" d="m470.05004,412.31312l11.5,-113l11.5,113l-23,0z" stroke="#000000" fill="#000000"/>
  <path transform="rotate(-45 337.55 220.813)" id="svg_7" d="m326.05004,277.31312l11.5,-113l11.5,113l-23,0z" stroke="#000000" fill="#000000"/>
  <path transform="rotate(45 474.55 221.813)" id="svg_8" d="m463.05004,278.31312l11.5,-113l11.5,113l-23,0z" stroke="#000000" fill="#000000"/>
  <path transform="rotate(-125 330.55 355.813)" id="svg_9" d="m319.05004,412.31312l11.5,-113l11.5,113l-23,0z" stroke="#000000" fill="#000000"/>
 </g>

</svg>